<svg viewBox="0 0 512 512" xmlns="http://www.w3.org/2000/svg">
  <defs>
    <radialGradient id="bgm" cx="35%" cy="28%" r="95%">
      <stop offset="0%" stop-color="#fff4f7"/>
      <stop offset="55%" stop-color="#ffd9e3"/>
      <stop offset="100%" stop-color="#c9b6ff"/>
    </radialGradient>
    <radialGradient id="bodym" cx="38%" cy="30%" r="80%">
      <stop offset="0%" stop-color="#fff8ef"/>
      <stop offset="100%" stop-color="#ffd9b8"/>
    </radialGradient>
  </defs>
  <rect width="512" height="512" fill="url(#bgm)"/>
  <g transform="translate(256 262) scale(0.74) translate(-256 -262)">
    <ellipse cx="256" cy="430" rx="150" ry="34" fill="#7a5a96" opacity="0.16"/>
    <path d="M70 270 C70 130 150 96 256 104 C362 96 442 130 442 270 C442 380 360 452 256 452 C152 452 70 380 70 270 Z" fill="url(#bodym)"/>
    <ellipse cx="190" cy="200" rx="62" ry="38" fill="#fff" opacity="0.5"/>
    <circle cx="150" cy="300" r="34" fill="#ffc2c2" opacity="0.55"/>
    <circle cx="362" cy="300" r="34" fill="#ffc2c2" opacity="0.55"/>
    <circle cx="186" cy="262" r="30" fill="#4a3f55"/>
    <circle cx="326" cy="262" r="30" fill="#4a3f55"/>
    <circle cx="176" cy="252" r="10" fill="#fff"/>
    <circle cx="316" cy="252" r="10" fill="#fff"/>
    <path d="M206 332 Q256 388 306 332" fill="none" stroke="#4a3f55" stroke-width="18" stroke-linecap="round"/>
  </g>
</svg>
